<svg width="30" height="24" viewBox="0 0 30 24" fill="none" xmlns="http://www.w3.org/2000/svg">
<path fill-rule="evenodd" clip-rule="evenodd" d="M11.2219 11.2089L11.2228 22.4177L13.6008 23.1935C14.9086 23.6202 16.0142 23.983 16.0575 23.9998C16.1203 24.024 16.1363 22.0865 16.1367 14.4484C16.1369 7.69438 16.1574 4.79057 16.2062 4.6088C16.2977 4.26744 16.6336 3.92066 16.8728 3.92066C17.1435 3.92066 17.5968 4.18412 17.7578 4.43492C18.0474 4.88616 18.05 4.92485 18.0865 9.26895L18.1213 13.4102L18.5309 13.586C20.8115 14.5644 22.6928 13.6257 23.3217 11.1955C23.5905 10.1569 23.558 7.9765 23.2554 6.75178C22.9799 5.63635 22.6149 4.95825 21.8708 4.17935C20.8198 3.07919 19.5186 2.40024 16.7664 1.51604C14.9063 0.918393 12.3596 0.212308 11.4573 0.0441055L11.221 0L11.2219 11.2089ZM6.30564 15.0067C2.21143 16.5293 1.81984 16.6881 1.13025 17.105C0.0881392 17.7352 -0.206024 18.3063 0.135528 19.0368C0.391628 19.5846 1.07524 20.0402 2.21464 20.4227C4.62347 21.2313 7.0171 21.4582 9.47224 21.1108L10.2757 20.9971V19.6704V18.3438L9.56676 18.6102C7.70121 19.3112 7.27786 19.4427 6.6494 19.5162C5.5231 19.6479 4.47815 19.3968 4.47815 18.9944C4.47815 18.9349 4.56083 18.8042 4.66191 18.7039C4.84566 18.5217 5.06666 18.4333 8.90509 17.0059L10.2757 16.4962V15.0366C10.2757 13.9093 10.2577 13.5783 10.1969 13.5829C10.1536 13.5861 8.40253 14.2268 6.30564 15.0067ZM21.5557 14.8594C20.1362 15.0002 18.676 15.2803 17.6959 15.5997L17.0815 15.7999V17.3273V18.8548L17.4124 18.7353C17.5943 18.6695 18.7924 18.2318 20.0748 17.7627C23.008 16.6896 23.0231 16.6854 24.0449 16.6813C24.9489 16.6778 25.327 16.758 25.5645 17.0039C25.6895 17.1332 25.7036 17.1847 25.6484 17.3093C25.612 17.3917 25.4988 17.52 25.3969 17.5945C25.2951 17.669 23.3829 18.403 21.1476 19.2256L17.0835 20.7213L17.0825 22.1958L17.0815 23.6703L22.5559 21.6325C25.5765 20.5082 28.255 19.4738 28.5315 19.3249C29.1462 18.9938 29.7281 18.5141 29.8836 18.2104C29.9569 18.0672 30 17.8474 30 17.6167C30 16.8428 29.3563 16.3017 27.7565 15.7305C26.4428 15.2615 25.2959 15.0103 23.8874 14.8832C23.2077 14.8218 22.0533 14.81 21.5557 14.8594Z" fill="white"/>
</svg>
